<?xml version="1.0" encoding="utf-8" standalone="no"?>
<!DOCTYPE svg PUBLIC "-//W3C//DTD SVG 1.1//EN"
  "http://www.w3.org/Graphics/SVG/1.1/DTD/svg11.dtd">
<svg xmlns:xlink="http://www.w3.org/1999/xlink" width="460.8pt" height="345.6pt" viewBox="0 0 460.8 345.6" xmlns="http://www.w3.org/2000/svg" version="1.1">
 <metadata>
  <rdf:RDF xmlns:dc="http://purl.org/dc/elements/1.1/" xmlns:cc="http://creativecommons.org/ns#" xmlns:rdf="http://www.w3.org/1999/02/22-rdf-syntax-ns#">
   <cc:Work>
    <dc:type rdf:resource="http://purl.org/dc/dcmitype/StillImage"/>
    <dc:date>2024-06-13T07:03:41.790849</dc:date>
    <dc:format>image/svg+xml</dc:format>
    <dc:creator>
     <cc:Agent>
      <dc:title>Matplotlib v3.9.0, https://matplotlib.org/</dc:title>
     </cc:Agent>
    </dc:creator>
   </cc:Work>
  </rdf:RDF>
 </metadata>
 <defs>
  <style type="text/css">*{stroke-linejoin: round; stroke-linecap: butt}</style>
 </defs>
 <g id="figure_1">
  <g id="patch_1">
   <path d="M 0 345.6 
L 460.8 345.6 
L 460.8 0 
L 0 0 
z
"/>
  </g>
  <g id="axes_1">
   <g id="patch_2">
    <path d="M 54.02 303.64 
L 450 303.64 
L 450 26.88 
L 54.02 26.88 
z
"/>
   </g>
   <g id="matplotlib.axis_1">
    <g id="xtick_1">
     <g id="line2d_1">
      <defs>
       <path id="m85aa243581" d="M 0 0 
L 0 3.5 
" style="stroke: #ffffff; stroke-width: 0.8"/>
      </defs>
      <g>
       <use xlink:href="#m85aa243581" x="56.041274" y="303.64" style="fill: #ffffff; stroke: #ffffff; stroke-width: 0.8"/>
      </g>
     </g>
     <g id="text_1">
      <!-- 0.00 -->
      <g style="fill: #ffffff" transform="translate(44.908462 318.238437) scale(0.1 -0.1)">
       <defs>
        <path id="DejaVuSans-30" d="M 2034 4250 
Q 1547 4250 1301 3770 
Q 1056 3291 1056 2328 
Q 1056 1369 1301 889 
Q 1547 409 2034 409 
Q 2525 409 2770 889 
Q 3016 1369 3016 2328 
Q 3016 3291 2770 3770 
Q 2525 4250 2034 4250 
z
M 2034 4750 
Q 2819 4750 3233 4129 
Q 3647 3509 3647 2328 
Q 3647 1150 3233 529 
Q 2819 -91 2034 -91 
Q 1250 -91 836 529 
Q 422 1150 422 2328 
Q 422 3509 836 4129 
Q 1250 4750 2034 4750 
z
" transform="scale(0.015625)"/>
        <path id="DejaVuSans-2e" d="M 684 794 
L 1344 794 
L 1344 0 
L 684 0 
L 684 794 
z
" transform="scale(0.015625)"/>
       </defs>
       <use xlink:href="#DejaVuSans-30"/>
       <use xlink:href="#DejaVuSans-2e" x="63.623047"/>
       <use xlink:href="#DejaVuSans-30" x="95.410156"/>
       <use xlink:href="#DejaVuSans-30" x="159.033203"/>
      </g>
     </g>
    </g>
    <g id="xtick_2">
     <g id="line2d_2">
      <g>
       <use xlink:href="#m85aa243581" x="102.825699" y="303.64" style="fill: #ffffff; stroke: #ffffff; stroke-width: 0.8"/>
      </g>
     </g>
     <g id="text_2">
      <!-- 0.25 -->
      <g style="fill: #ffffff" transform="translate(91.692886 318.238437) scale(0.1 -0.1)">
       <defs>
        <path id="DejaVuSans-32" d="M 1228 531 
L 3431 531 
L 3431 0 
L 469 0 
L 469 531 
Q 828 903 1448 1529 
Q 2069 2156 2228 2338 
Q 2531 2678 2651 2914 
Q 2772 3150 2772 3378 
Q 2772 3750 2511 3984 
Q 2250 4219 1831 4219 
Q 1534 4219 1204 4116 
Q 875 4013 500 3803 
L 500 4441 
Q 881 4594 1212 4672 
Q 1544 4750 1819 4750 
Q 2544 4750 2975 4387 
Q 3406 4025 3406 3419 
Q 3406 3131 3298 2873 
Q 3191 2616 2906 2266 
Q 2828 2175 2409 1742 
Q 1991 1309 1228 531 
z
" transform="scale(0.015625)"/>
        <path id="DejaVuSans-35" d="M 691 4666 
L 3169 4666 
L 3169 4134 
L 1269 4134 
L 1269 2991 
Q 1406 3038 1543 3061 
Q 1681 3084 1819 3084 
Q 2600 3084 3056 2656 
Q 3513 2228 3513 1497 
Q 3513 744 3044 326 
Q 2575 -91 1722 -91 
Q 1428 -91 1123 -41 
Q 819 9 494 109 
L 494 744 
Q 775 591 1075 516 
Q 1375 441 1709 441 
Q 2250 441 2565 725 
Q 2881 1009 2881 1497 
Q 2881 1984 2565 2268 
Q 2250 2553 1709 2553 
Q 1456 2553 1204 2497 
Q 953 2441 691 2322 
L 691 4666 
z
" transform="scale(0.015625)"/>
       </defs>
       <use xlink:href="#DejaVuSans-30"/>
       <use xlink:href="#DejaVuSans-2e" x="63.623047"/>
       <use xlink:href="#DejaVuSans-32" x="95.410156"/>
       <use xlink:href="#DejaVuSans-35" x="159.033203"/>
      </g>
     </g>
    </g>
    <g id="xtick_3">
     <g id="line2d_3">
      <g>
       <use xlink:href="#m85aa243581" x="149.610123" y="303.64" style="fill: #ffffff; stroke: #ffffff; stroke-width: 0.8"/>
      </g>
     </g>
     <g id="text_3">
      <!-- 0.50 -->
      <g style="fill: #ffffff" transform="translate(138.477311 318.238437) scale(0.1 -0.1)">
       <use xlink:href="#DejaVuSans-30"/>
       <use xlink:href="#DejaVuSans-2e" x="63.623047"/>
       <use xlink:href="#DejaVuSans-35" x="95.410156"/>
       <use xlink:href="#DejaVuSans-30" x="159.033203"/>
      </g>
     </g>
    </g>
    <g id="xtick_4">
     <g id="line2d_4">
      <g>
       <use xlink:href="#m85aa243581" x="196.394548" y="303.64" style="fill: #ffffff; stroke: #ffffff; stroke-width: 0.8"/>
      </g>
     </g>
     <g id="text_4">
      <!-- 0.75 -->
      <g style="fill: #ffffff" transform="translate(185.261735 318.238437) scale(0.1 -0.1)">
       <defs>
        <path id="DejaVuSans-37" d="M 525 4666 
L 3525 4666 
L 3525 4397 
L 1831 0 
L 1172 0 
L 2766 4134 
L 525 4134 
L 525 4666 
z
" transform="scale(0.015625)"/>
       </defs>
       <use xlink:href="#DejaVuSans-30"/>
       <use xlink:href="#DejaVuSans-2e" x="63.623047"/>
       <use xlink:href="#DejaVuSans-37" x="95.410156"/>
       <use xlink:href="#DejaVuSans-35" x="159.033203"/>
      </g>
     </g>
    </g>
    <g id="xtick_5">
     <g id="line2d_5">
      <g>
       <use xlink:href="#m85aa243581" x="243.178972" y="303.64" style="fill: #ffffff; stroke: #ffffff; stroke-width: 0.8"/>
      </g>
     </g>
     <g id="text_5">
      <!-- 1.00 -->
      <g style="fill: #ffffff" transform="translate(232.04616 318.238437) scale(0.1 -0.1)">
       <defs>
        <path id="DejaVuSans-31" d="M 794 531 
L 1825 531 
L 1825 4091 
L 703 3866 
L 703 4441 
L 1819 4666 
L 2450 4666 
L 2450 531 
L 3481 531 
L 3481 0 
L 794 0 
L 794 531 
z
" transform="scale(0.015625)"/>
       </defs>
       <use xlink:href="#DejaVuSans-31"/>
       <use xlink:href="#DejaVuSans-2e" x="63.623047"/>
       <use xlink:href="#DejaVuSans-30" x="95.410156"/>
       <use xlink:href="#DejaVuSans-30" x="159.033203"/>
      </g>
     </g>
    </g>
    <g id="xtick_6">
     <g id="line2d_6">
      <g>
       <use xlink:href="#m85aa243581" x="289.963396" y="303.64" style="fill: #ffffff; stroke: #ffffff; stroke-width: 0.8"/>
      </g>
     </g>
     <g id="text_6">
      <!-- 1.25 -->
      <g style="fill: #ffffff" transform="translate(278.830584 318.238437) scale(0.1 -0.1)">
       <use xlink:href="#DejaVuSans-31"/>
       <use xlink:href="#DejaVuSans-2e" x="63.623047"/>
       <use xlink:href="#DejaVuSans-32" x="95.410156"/>
       <use xlink:href="#DejaVuSans-35" x="159.033203"/>
      </g>
     </g>
    </g>
    <g id="xtick_7">
     <g id="line2d_7">
      <g>
       <use xlink:href="#m85aa243581" x="336.747821" y="303.64" style="fill: #ffffff; stroke: #ffffff; stroke-width: 0.8"/>
      </g>
     </g>
     <g id="text_7">
      <!-- 1.50 -->
      <g style="fill: #ffffff" transform="translate(325.615008 318.238437) scale(0.1 -0.1)">
       <use xlink:href="#DejaVuSans-31"/>
       <use xlink:href="#DejaVuSans-2e" x="63.623047"/>
       <use xlink:href="#DejaVuSans-35" x="95.410156"/>
       <use xlink:href="#DejaVuSans-30" x="159.033203"/>
      </g>
     </g>
    </g>
    <g id="xtick_8">
     <g id="line2d_8">
      <g>
       <use xlink:href="#m85aa243581" x="383.532245" y="303.64" style="fill: #ffffff; stroke: #ffffff; stroke-width: 0.8"/>
      </g>
     </g>
     <g id="text_8">
      <!-- 1.75 -->
      <g style="fill: #ffffff" transform="translate(372.399433 318.238437) scale(0.1 -0.1)">
       <use xlink:href="#DejaVuSans-31"/>
       <use xlink:href="#DejaVuSans-2e" x="63.623047"/>
       <use xlink:href="#DejaVuSans-37" x="95.410156"/>
       <use xlink:href="#DejaVuSans-35" x="159.033203"/>
      </g>
     </g>
    </g>
    <g id="xtick_9">
     <g id="line2d_9">
      <g>
       <use xlink:href="#m85aa243581" x="430.31667" y="303.64" style="fill: #ffffff; stroke: #ffffff; stroke-width: 0.8"/>
      </g>
     </g>
     <g id="text_9">
      <!-- 2.00 -->
      <g style="fill: #ffffff" transform="translate(419.183857 318.238437) scale(0.1 -0.1)">
       <use xlink:href="#DejaVuSans-32"/>
       <use xlink:href="#DejaVuSans-2e" x="63.623047"/>
       <use xlink:href="#DejaVuSans-30" x="95.410156"/>
       <use xlink:href="#DejaVuSans-30" x="159.033203"/>
      </g>
     </g>
    </g>
    <g id="text_10">
     <!-- Irradiance (W/cm²) -->
     <g style="fill: #ffffff" transform="translate(205.082656 331.916562) scale(0.1 -0.1)">
      <defs>
       <path id="DejaVuSans-49" d="M 628 4666 
L 1259 4666 
L 1259 0 
L 628 0 
L 628 4666 
z
" transform="scale(0.015625)"/>
       <path id="DejaVuSans-72" d="M 2631 2963 
Q 2534 3019 2420 3045 
Q 2306 3072 2169 3072 
Q 1681 3072 1420 2755 
Q 1159 2438 1159 1844 
L 1159 0 
L 581 0 
L 581 3500 
L 1159 3500 
L 1159 2956 
Q 1341 3275 1631 3429 
Q 1922 3584 2338 3584 
Q 2397 3584 2469 3576 
Q 2541 3569 2628 3553 
L 2631 2963 
z
" transform="scale(0.015625)"/>
       <path id="DejaVuSans-61" d="M 2194 1759 
Q 1497 1759 1228 1600 
Q 959 1441 959 1056 
Q 959 750 1161 570 
Q 1363 391 1709 391 
Q 2188 391 2477 730 
Q 2766 1069 2766 1631 
L 2766 1759 
L 2194 1759 
z
M 3341 1997 
L 3341 0 
L 2766 0 
L 2766 531 
Q 2569 213 2275 61 
Q 1981 -91 1556 -91 
Q 1019 -91 701 211 
Q 384 513 384 1019 
Q 384 1609 779 1909 
Q 1175 2209 1959 2209 
L 2766 2209 
L 2766 2266 
Q 2766 2663 2505 2880 
Q 2244 3097 1772 3097 
Q 1472 3097 1187 3025 
Q 903 2953 641 2809 
L 641 3341 
Q 956 3463 1253 3523 
Q 1550 3584 1831 3584 
Q 2591 3584 2966 3190 
Q 3341 2797 3341 1997 
z
" transform="scale(0.015625)"/>
       <path id="DejaVuSans-64" d="M 2906 2969 
L 2906 4863 
L 3481 4863 
L 3481 0 
L 2906 0 
L 2906 525 
Q 2725 213 2448 61 
Q 2172 -91 1784 -91 
Q 1150 -91 751 415 
Q 353 922 353 1747 
Q 353 2572 751 3078 
Q 1150 3584 1784 3584 
Q 2172 3584 2448 3432 
Q 2725 3281 2906 2969 
z
M 947 1747 
Q 947 1113 1208 752 
Q 1469 391 1925 391 
Q 2381 391 2643 752 
Q 2906 1113 2906 1747 
Q 2906 2381 2643 2742 
Q 2381 3103 1925 3103 
Q 1469 3103 1208 2742 
Q 947 2381 947 1747 
z
" transform="scale(0.015625)"/>
       <path id="DejaVuSans-69" d="M 603 3500 
L 1178 3500 
L 1178 0 
L 603 0 
L 603 3500 
z
M 603 4863 
L 1178 4863 
L 1178 4134 
L 603 4134 
L 603 4863 
z
" transform="scale(0.015625)"/>
       <path id="DejaVuSans-6e" d="M 3513 2113 
L 3513 0 
L 2938 0 
L 2938 2094 
Q 2938 2591 2744 2837 
Q 2550 3084 2163 3084 
Q 1697 3084 1428 2787 
Q 1159 2491 1159 1978 
L 1159 0 
L 581 0 
L 581 3500 
L 1159 3500 
L 1159 2956 
Q 1366 3272 1645 3428 
Q 1925 3584 2291 3584 
Q 2894 3584 3203 3211 
Q 3513 2838 3513 2113 
z
" transform="scale(0.015625)"/>
       <path id="DejaVuSans-63" d="M 3122 3366 
L 3122 2828 
Q 2878 2963 2633 3030 
Q 2388 3097 2138 3097 
Q 1578 3097 1268 2742 
Q 959 2388 959 1747 
Q 959 1106 1268 751 
Q 1578 397 2138 397 
Q 2388 397 2633 464 
Q 2878 531 3122 666 
L 3122 134 
Q 2881 22 2623 -34 
Q 2366 -91 2075 -91 
Q 1284 -91 818 406 
Q 353 903 353 1747 
Q 353 2603 823 3093 
Q 1294 3584 2113 3584 
Q 2378 3584 2631 3529 
Q 2884 3475 3122 3366 
z
" transform="scale(0.015625)"/>
       <path id="DejaVuSans-65" d="M 3597 1894 
L 3597 1613 
L 953 1613 
Q 991 1019 1311 708 
Q 1631 397 2203 397 
Q 2534 397 2845 478 
Q 3156 559 3463 722 
L 3463 178 
Q 3153 47 2828 -22 
Q 2503 -91 2169 -91 
Q 1331 -91 842 396 
Q 353 884 353 1716 
Q 353 2575 817 3079 
Q 1281 3584 2069 3584 
Q 2775 3584 3186 3129 
Q 3597 2675 3597 1894 
z
M 3022 2063 
Q 3016 2534 2758 2815 
Q 2500 3097 2075 3097 
Q 1594 3097 1305 2825 
Q 1016 2553 972 2059 
L 3022 2063 
z
" transform="scale(0.015625)"/>
       <path id="DejaVuSans-20" transform="scale(0.015625)"/>
       <path id="DejaVuSans-28" d="M 1984 4856 
Q 1566 4138 1362 3434 
Q 1159 2731 1159 2009 
Q 1159 1288 1364 580 
Q 1569 -128 1984 -844 
L 1484 -844 
Q 1016 -109 783 600 
Q 550 1309 550 2009 
Q 550 2706 781 3412 
Q 1013 4119 1484 4856 
L 1984 4856 
z
" transform="scale(0.015625)"/>
       <path id="DejaVuSans-57" d="M 213 4666 
L 850 4666 
L 1831 722 
L 2809 4666 
L 3519 4666 
L 4500 722 
L 5478 4666 
L 6119 4666 
L 4947 0 
L 4153 0 
L 3169 4050 
L 2175 0 
L 1381 0 
L 213 4666 
z
" transform="scale(0.015625)"/>
       <path id="DejaVuSans-2f" d="M 1625 4666 
L 2156 4666 
L 531 -594 
L 0 -594 
L 1625 4666 
z
" transform="scale(0.015625)"/>
       <path id="DejaVuSans-6d" d="M 3328 2828 
Q 3544 3216 3844 3400 
Q 4144 3584 4550 3584 
Q 5097 3584 5394 3201 
Q 5691 2819 5691 2113 
L 5691 0 
L 5113 0 
L 5113 2094 
Q 5113 2597 4934 2840 
Q 4756 3084 4391 3084 
Q 3944 3084 3684 2787 
Q 3425 2491 3425 1978 
L 3425 0 
L 2847 0 
L 2847 2094 
Q 2847 2600 2669 2842 
Q 2491 3084 2119 3084 
Q 1678 3084 1418 2786 
Q 1159 2488 1159 1978 
L 1159 0 
L 581 0 
L 581 3500 
L 1159 3500 
L 1159 2956 
Q 1356 3278 1631 3431 
Q 1906 3584 2284 3584 
Q 2666 3584 2933 3390 
Q 3200 3197 3328 2828 
z
" transform="scale(0.015625)"/>
       <path id="DejaVuSans-b2" d="M 838 2444 
L 2163 2444 
L 2163 2088 
L 294 2088 
L 294 2431 
Q 400 2528 597 2703 
Q 1672 3656 1672 3950 
Q 1672 4156 1509 4282 
Q 1347 4409 1081 4409 
Q 919 4409 728 4354 
Q 538 4300 313 4191 
L 313 4575 
Q 553 4663 761 4706 
Q 969 4750 1147 4750 
Q 1600 4750 1872 4544 
Q 2144 4338 2144 4000 
Q 2144 3566 1109 2678 
Q 934 2528 838 2444 
z
" transform="scale(0.015625)"/>
       <path id="DejaVuSans-29" d="M 513 4856 
L 1013 4856 
Q 1481 4119 1714 3412 
Q 1947 2706 1947 2009 
Q 1947 1309 1714 600 
Q 1481 -109 1013 -844 
L 513 -844 
Q 928 -128 1133 580 
Q 1338 1288 1338 2009 
Q 1338 2731 1133 3434 
Q 928 4138 513 4856 
z
" transform="scale(0.015625)"/>
      </defs>
      <use xlink:href="#DejaVuSans-49"/>
      <use xlink:href="#DejaVuSans-72" x="29.492188"/>
      <use xlink:href="#DejaVuSans-72" x="68.855469"/>
      <use xlink:href="#DejaVuSans-61" x="109.96875"/>
      <use xlink:href="#DejaVuSans-64" x="171.248047"/>
      <use xlink:href="#DejaVuSans-69" x="234.724609"/>
      <use xlink:href="#DejaVuSans-61" x="262.507812"/>
      <use xlink:href="#DejaVuSans-6e" x="323.787109"/>
      <use xlink:href="#DejaVuSans-63" x="387.166016"/>
      <use xlink:href="#DejaVuSans-65" x="442.146484"/>
      <use xlink:href="#DejaVuSans-20" x="503.669922"/>
      <use xlink:href="#DejaVuSans-28" x="535.457031"/>
      <use xlink:href="#DejaVuSans-57" x="574.470703"/>
      <use xlink:href="#DejaVuSans-2f" x="673.347656"/>
      <use xlink:href="#DejaVuSans-63" x="707.039062"/>
      <use xlink:href="#DejaVuSans-6d" x="762.019531"/>
      <use xlink:href="#DejaVuSans-b2" x="859.431641"/>
      <use xlink:href="#DejaVuSans-29" x="899.519531"/>
     </g>
    </g>
    <g id="text_11">
     <!-- 1e6 -->
     <g style="fill: #ffffff" transform="translate(431.121875 330.916562) scale(0.1 -0.1)">
      <defs>
       <path id="DejaVuSans-36" d="M 2113 2584 
Q 1688 2584 1439 2293 
Q 1191 2003 1191 1497 
Q 1191 994 1439 701 
Q 1688 409 2113 409 
Q 2538 409 2786 701 
Q 3034 994 3034 1497 
Q 3034 2003 2786 2293 
Q 2538 2584 2113 2584 
z
M 3366 4563 
L 3366 3988 
Q 3128 4100 2886 4159 
Q 2644 4219 2406 4219 
Q 1781 4219 1451 3797 
Q 1122 3375 1075 2522 
Q 1259 2794 1537 2939 
Q 1816 3084 2150 3084 
Q 2853 3084 3261 2657 
Q 3669 2231 3669 1497 
Q 3669 778 3244 343 
Q 2819 -91 2113 -91 
Q 1303 -91 875 529 
Q 447 1150 447 2328 
Q 447 3434 972 4092 
Q 1497 4750 2381 4750 
Q 2619 4750 2861 4703 
Q 3103 4656 3366 4563 
z
" transform="scale(0.015625)"/>
      </defs>
      <use xlink:href="#DejaVuSans-31"/>
      <use xlink:href="#DejaVuSans-65" x="63.623047"/>
      <use xlink:href="#DejaVuSans-36" x="125.146484"/>
     </g>
    </g>
   </g>
   <g id="matplotlib.axis_2">
    <g id="ytick_1">
     <g id="line2d_10">
      <defs>
       <path id="md1506c0110" d="M 0 0 
L -3.5 0 
" style="stroke: #ffffff; stroke-width: 0.8"/>
      </defs>
      <g>
       <use xlink:href="#md1506c0110" x="54.02" y="299.176129" style="fill: #ffffff; stroke: #ffffff; stroke-width: 0.8"/>
      </g>
     </g>
     <g id="text_12">
      <!-- 0.45 -->
      <g style="fill: #ffffff" transform="translate(24.754375 302.975348) scale(0.1 -0.1)">
       <defs>
        <path id="DejaVuSans-34" d="M 2419 4116 
L 825 1625 
L 2419 1625 
L 2419 4116 
z
M 2253 4666 
L 3047 4666 
L 3047 1625 
L 3713 1625 
L 3713 1100 
L 3047 1100 
L 3047 0 
L 2419 0 
L 2419 1100 
L 313 1100 
L 313 1709 
L 2253 4666 
z
" transform="scale(0.015625)"/>
       </defs>
       <use xlink:href="#DejaVuSans-30"/>
       <use xlink:href="#DejaVuSans-2e" x="63.623047"/>
       <use xlink:href="#DejaVuSans-34" x="95.410156"/>
       <use xlink:href="#DejaVuSans-35" x="159.033203"/>
      </g>
     </g>
    </g>
    <g id="ytick_2">
     <g id="line2d_11">
      <g>
       <use xlink:href="#md1506c0110" x="54.02" y="258.595484" style="fill: #ffffff; stroke: #ffffff; stroke-width: 0.8"/>
      </g>
     </g>
     <g id="text_13">
      <!-- 0.50 -->
      <g style="fill: #ffffff" transform="translate(24.754375 262.394703) scale(0.1 -0.1)">
       <use xlink:href="#DejaVuSans-30"/>
       <use xlink:href="#DejaVuSans-2e" x="63.623047"/>
       <use xlink:href="#DejaVuSans-35" x="95.410156"/>
       <use xlink:href="#DejaVuSans-30" x="159.033203"/>
      </g>
     </g>
    </g>
    <g id="ytick_3">
     <g id="line2d_12">
      <g>
       <use xlink:href="#md1506c0110" x="54.02" y="218.014839" style="fill: #ffffff; stroke: #ffffff; stroke-width: 0.8"/>
      </g>
     </g>
     <g id="text_14">
      <!-- 0.55 -->
      <g style="fill: #ffffff" transform="translate(24.754375 221.814057) scale(0.1 -0.1)">
       <use xlink:href="#DejaVuSans-30"/>
       <use xlink:href="#DejaVuSans-2e" x="63.623047"/>
       <use xlink:href="#DejaVuSans-35" x="95.410156"/>
       <use xlink:href="#DejaVuSans-35" x="159.033203"/>
      </g>
     </g>
    </g>
    <g id="ytick_4">
     <g id="line2d_13">
      <g>
       <use xlink:href="#md1506c0110" x="54.02" y="177.434194" style="fill: #ffffff; stroke: #ffffff; stroke-width: 0.8"/>
      </g>
     </g>
     <g id="text_15">
      <!-- 0.60 -->
      <g style="fill: #ffffff" transform="translate(24.754375 181.233412) scale(0.1 -0.1)">
       <use xlink:href="#DejaVuSans-30"/>
       <use xlink:href="#DejaVuSans-2e" x="63.623047"/>
       <use xlink:href="#DejaVuSans-36" x="95.410156"/>
       <use xlink:href="#DejaVuSans-30" x="159.033203"/>
      </g>
     </g>
    </g>
    <g id="ytick_5">
     <g id="line2d_14">
      <g>
       <use xlink:href="#md1506c0110" x="54.02" y="136.853548" style="fill: #ffffff; stroke: #ffffff; stroke-width: 0.8"/>
      </g>
     </g>
     <g id="text_16">
      <!-- 0.65 -->
      <g style="fill: #ffffff" transform="translate(24.754375 140.652767) scale(0.1 -0.1)">
       <use xlink:href="#DejaVuSans-30"/>
       <use xlink:href="#DejaVuSans-2e" x="63.623047"/>
       <use xlink:href="#DejaVuSans-36" x="95.410156"/>
       <use xlink:href="#DejaVuSans-35" x="159.033203"/>
      </g>
     </g>
    </g>
    <g id="ytick_6">
     <g id="line2d_15">
      <g>
       <use xlink:href="#md1506c0110" x="54.02" y="96.272903" style="fill: #ffffff; stroke: #ffffff; stroke-width: 0.8"/>
      </g>
     </g>
     <g id="text_17">
      <!-- 0.70 -->
      <g style="fill: #ffffff" transform="translate(24.754375 100.072122) scale(0.1 -0.1)">
       <use xlink:href="#DejaVuSans-30"/>
       <use xlink:href="#DejaVuSans-2e" x="63.623047"/>
       <use xlink:href="#DejaVuSans-37" x="95.410156"/>
       <use xlink:href="#DejaVuSans-30" x="159.033203"/>
      </g>
     </g>
    </g>
    <g id="ytick_7">
     <g id="line2d_16">
      <g>
       <use xlink:href="#md1506c0110" x="54.02" y="55.692258" style="fill: #ffffff; stroke: #ffffff; stroke-width: 0.8"/>
      </g>
     </g>
     <g id="text_18">
      <!-- 0.75 -->
      <g style="fill: #ffffff" transform="translate(24.754375 59.491477) scale(0.1 -0.1)">
       <use xlink:href="#DejaVuSans-30"/>
       <use xlink:href="#DejaVuSans-2e" x="63.623047"/>
       <use xlink:href="#DejaVuSans-37" x="95.410156"/>
       <use xlink:href="#DejaVuSans-35" x="159.033203"/>
      </g>
     </g>
    </g>
    <g id="text_19">
     <!-- Signal (arb) -->
     <g style="fill: #ffffff" transform="translate(18.674688 194.40375) rotate(-90) scale(0.1 -0.1)">
      <defs>
       <path id="DejaVuSans-53" d="M 3425 4513 
L 3425 3897 
Q 3066 4069 2747 4153 
Q 2428 4238 2131 4238 
Q 1616 4238 1336 4038 
Q 1056 3838 1056 3469 
Q 1056 3159 1242 3001 
Q 1428 2844 1947 2747 
L 2328 2669 
Q 3034 2534 3370 2195 
Q 3706 1856 3706 1288 
Q 3706 609 3251 259 
Q 2797 -91 1919 -91 
Q 1588 -91 1214 -16 
Q 841 59 441 206 
L 441 856 
Q 825 641 1194 531 
Q 1563 422 1919 422 
Q 2459 422 2753 634 
Q 3047 847 3047 1241 
Q 3047 1584 2836 1778 
Q 2625 1972 2144 2069 
L 1759 2144 
Q 1053 2284 737 2584 
Q 422 2884 422 3419 
Q 422 4038 858 4394 
Q 1294 4750 2059 4750 
Q 2388 4750 2728 4690 
Q 3069 4631 3425 4513 
z
" transform="scale(0.015625)"/>
       <path id="DejaVuSans-67" d="M 2906 1791 
Q 2906 2416 2648 2759 
Q 2391 3103 1925 3103 
Q 1463 3103 1205 2759 
Q 947 2416 947 1791 
Q 947 1169 1205 825 
Q 1463 481 1925 481 
Q 2391 481 2648 825 
Q 2906 1169 2906 1791 
z
M 3481 434 
Q 3481 -459 3084 -895 
Q 2688 -1331 1869 -1331 
Q 1566 -1331 1297 -1286 
Q 1028 -1241 775 -1147 
L 775 -588 
Q 1028 -725 1275 -790 
Q 1522 -856 1778 -856 
Q 2344 -856 2625 -561 
Q 2906 -266 2906 331 
L 2906 616 
Q 2728 306 2450 153 
Q 2172 0 1784 0 
Q 1141 0 747 490 
Q 353 981 353 1791 
Q 353 2603 747 3093 
Q 1141 3584 1784 3584 
Q 2172 3584 2450 3431 
Q 2728 3278 2906 2969 
L 2906 3500 
L 3481 3500 
L 3481 434 
z
" transform="scale(0.015625)"/>
       <path id="DejaVuSans-6c" d="M 603 4863 
L 1178 4863 
L 1178 0 
L 603 0 
L 603 4863 
z
" transform="scale(0.015625)"/>
       <path id="DejaVuSans-62" d="M 3116 1747 
Q 3116 2381 2855 2742 
Q 2594 3103 2138 3103 
Q 1681 3103 1420 2742 
Q 1159 2381 1159 1747 
Q 1159 1113 1420 752 
Q 1681 391 2138 391 
Q 2594 391 2855 752 
Q 3116 1113 3116 1747 
z
M 1159 2969 
Q 1341 3281 1617 3432 
Q 1894 3584 2278 3584 
Q 2916 3584 3314 3078 
Q 3713 2572 3713 1747 
Q 3713 922 3314 415 
Q 2916 -91 2278 -91 
Q 1894 -91 1617 61 
Q 1341 213 1159 525 
L 1159 0 
L 581 0 
L 581 4863 
L 1159 4863 
L 1159 2969 
z
" transform="scale(0.015625)"/>
      </defs>
      <use xlink:href="#DejaVuSans-53"/>
      <use xlink:href="#DejaVuSans-69" x="63.476562"/>
      <use xlink:href="#DejaVuSans-67" x="91.259766"/>
      <use xlink:href="#DejaVuSans-6e" x="154.736328"/>
      <use xlink:href="#DejaVuSans-61" x="218.115234"/>
      <use xlink:href="#DejaVuSans-6c" x="279.394531"/>
      <use xlink:href="#DejaVuSans-20" x="307.177734"/>
      <use xlink:href="#DejaVuSans-28" x="338.964844"/>
      <use xlink:href="#DejaVuSans-61" x="377.978516"/>
      <use xlink:href="#DejaVuSans-72" x="439.257812"/>
      <use xlink:href="#DejaVuSans-62" x="480.371094"/>
      <use xlink:href="#DejaVuSans-29" x="543.847656"/>
     </g>
    </g>
   </g>
   <g id="line2d_17">
    <path d="M 72.019091 231.18681 
L 75.26217 217.968364 
L 78.50525 205.723113 
L 81.748329 194.379407 
L 84.991409 183.87087 
L 88.234488 174.136015 
L 91.477568 165.117879 
L 94.720647 156.763695 
L 97.963726 149.024579 
L 101.206806 141.855249 
L 104.449885 135.213753 
L 107.692965 129.061232 
L 110.936044 123.361684 
L 114.179124 118.081759 
L 117.422203 113.190564 
L 121.025625 108.177083 
L 124.629046 103.572011 
L 128.232468 99.34208 
L 131.83589 95.456728 
L 135.439311 91.887887 
L 139.042733 88.609771 
L 143.006496 85.311425 
L 146.97026 82.307405 
L 150.934024 79.571446 
L 155.25813 76.864437 
L 159.582236 74.419847 
L 164.266684 72.03823 
L 168.951132 69.905686 
L 173.995922 67.857832 
L 179.401055 65.917881 
L 184.806187 64.210085 
L 190.571662 62.613082 
L 196.697478 61.138097 
L 203.543979 59.723083 
L 210.750823 58.460885 
L 218.67835 57.29908 
L 227.326562 56.256366 
L 237.0558 55.311403 
L 247.866065 54.486845 
L 260.478041 53.756281 
L 275.252069 53.135789 
L 292.908835 52.62877 
L 314.889707 52.231662 
L 344.077422 51.940764 
L 387.318481 51.752972 
L 432.000909 51.683955 
L 432.000909 51.683955 
" clip-path="url(#p1514ae9511)" style="fill: none; stroke: #ffa07a; stroke-width: 1.5; stroke-linecap: square"/>
   </g>
   <g id="line2d_18">
    <defs>
     <path id="m797d351249" d="M 0 3 
C 0.795609 3 1.55874 2.683901 2.12132 2.12132 
C 2.683901 1.55874 3 0.795609 3 0 
C 3 -0.795609 2.683901 -1.55874 2.12132 -2.12132 
C 1.55874 -2.683901 0.795609 -3 0 -3 
C -0.795609 -3 -1.55874 -2.683901 -2.12132 -2.12132 
C -2.683901 -1.55874 -3 -0.795609 -3 0 
C -3 0.795609 -2.683901 1.55874 -2.12132 2.12132 
C -1.55874 2.683901 -0.795609 3 0 3 
z
" style="stroke: #add8e6"/>
    </defs>
    <g clip-path="url(#p1514ae9511)">
     <use xlink:href="#m797d351249" x="432.000909" y="39.46" style="fill: #add8e6; stroke: #add8e6"/>
     <use xlink:href="#m797d351249" x="103.03155" y="144.969677" style="fill: #add8e6; stroke: #add8e6"/>
     <use xlink:href="#m797d351249" x="84.242925" y="177.434194" style="fill: #add8e6; stroke: #add8e6"/>
     <use xlink:href="#m797d351249" x="124.664668" y="136.853548" style="fill: #add8e6; stroke: #add8e6"/>
     <use xlink:href="#m797d351249" x="150.04054" y="96.272903" style="fill: #add8e6; stroke: #add8e6"/>
     <use xlink:href="#m797d351249" x="197.030816" y="55.692258" style="fill: #add8e6; stroke: #add8e6"/>
     <use xlink:href="#m797d351249" x="93.637238" y="144.969677" style="fill: #add8e6; stroke: #add8e6"/>
     <use xlink:href="#m797d351249" x="93.637238" y="120.62129" style="fill: #add8e6; stroke: #add8e6"/>
     <use xlink:href="#m797d351249" x="72.019091" y="169.318065" style="fill: #add8e6; stroke: #add8e6"/>
     <use xlink:href="#m797d351249" x="72.019091" y="218.014839" style="fill: #add8e6; stroke: #add8e6"/>
     <use xlink:href="#m797d351249" x="72.019091" y="226.130968" style="fill: #add8e6; stroke: #add8e6"/>
     <use xlink:href="#m797d351249" x="72.019091" y="291.06" style="fill: #add8e6; stroke: #add8e6"/>
     <use xlink:href="#m797d351249" x="72.019091" y="274.827742" style="fill: #add8e6; stroke: #add8e6"/>
    </g>
   </g>
   <g id="patch_3">
    <path d="M 54.02 303.64 
L 54.02 26.88 
" style="fill: none; stroke: #ffffff; stroke-width: 0.8; stroke-linejoin: miter; stroke-linecap: square"/>
   </g>
   <g id="patch_4">
    <path d="M 450 303.64 
L 450 26.88 
" style="fill: none; stroke: #ffffff; stroke-width: 0.8; stroke-linejoin: miter; stroke-linecap: square"/>
   </g>
   <g id="patch_5">
    <path d="M 54.02 303.64 
L 450 303.64 
" style="fill: none; stroke: #ffffff; stroke-width: 0.8; stroke-linejoin: miter; stroke-linecap: square"/>
   </g>
   <g id="patch_6">
    <path d="M 54.02 26.88 
L 450 26.88 
" style="fill: none; stroke: #ffffff; stroke-width: 0.8; stroke-linejoin: miter; stroke-linecap: square"/>
   </g>
   <g id="text_20">
    <g id="patch_7">
     <path d="M 318.1608 292.802 
L 434.1608 292.802 
Q 437.1608 292.802 437.1608 289.802 
L 437.1608 256.382 
Q 437.1608 253.382 434.1608 253.382 
L 318.1608 253.382 
Q 315.1608 253.382 315.1608 256.382 
L 315.1608 289.802 
Q 315.1608 292.802 318.1608 292.802 
L 318.1608 292.802 
z
" style="fill: none; opacity: 0.7; stroke: #ffa07a; stroke-linejoin: miter"/>
    </g>
    <!-- Fit parameters: -->
    <g style="fill: #ffa07a" transform="translate(318.1608 263.980437) scale(0.1 -0.1)">
     <defs>
      <path id="DejaVuSans-46" d="M 628 4666 
L 3309 4666 
L 3309 4134 
L 1259 4134 
L 1259 2759 
L 3109 2759 
L 3109 2228 
L 1259 2228 
L 1259 0 
L 628 0 
L 628 4666 
z
" transform="scale(0.015625)"/>
      <path id="DejaVuSans-74" d="M 1172 4494 
L 1172 3500 
L 2356 3500 
L 2356 3053 
L 1172 3053 
L 1172 1153 
Q 1172 725 1289 603 
Q 1406 481 1766 481 
L 2356 481 
L 2356 0 
L 1766 0 
Q 1100 0 847 248 
Q 594 497 594 1153 
L 594 3053 
L 172 3053 
L 172 3500 
L 594 3500 
L 594 4494 
L 1172 4494 
z
" transform="scale(0.015625)"/>
      <path id="DejaVuSans-70" d="M 1159 525 
L 1159 -1331 
L 581 -1331 
L 581 3500 
L 1159 3500 
L 1159 2969 
Q 1341 3281 1617 3432 
Q 1894 3584 2278 3584 
Q 2916 3584 3314 3078 
Q 3713 2572 3713 1747 
Q 3713 922 3314 415 
Q 2916 -91 2278 -91 
Q 1894 -91 1617 61 
Q 1341 213 1159 525 
z
M 3116 1747 
Q 3116 2381 2855 2742 
Q 2594 3103 2138 3103 
Q 1681 3103 1420 2742 
Q 1159 2381 1159 1747 
Q 1159 1113 1420 752 
Q 1681 391 2138 391 
Q 2594 391 2855 752 
Q 3116 1113 3116 1747 
z
" transform="scale(0.015625)"/>
      <path id="DejaVuSans-73" d="M 2834 3397 
L 2834 2853 
Q 2591 2978 2328 3040 
Q 2066 3103 1784 3103 
Q 1356 3103 1142 2972 
Q 928 2841 928 2578 
Q 928 2378 1081 2264 
Q 1234 2150 1697 2047 
L 1894 2003 
Q 2506 1872 2764 1633 
Q 3022 1394 3022 966 
Q 3022 478 2636 193 
Q 2250 -91 1575 -91 
Q 1294 -91 989 -36 
Q 684 19 347 128 
L 347 722 
Q 666 556 975 473 
Q 1284 391 1588 391 
Q 1994 391 2212 530 
Q 2431 669 2431 922 
Q 2431 1156 2273 1281 
Q 2116 1406 1581 1522 
L 1381 1569 
Q 847 1681 609 1914 
Q 372 2147 372 2553 
Q 372 3047 722 3315 
Q 1072 3584 1716 3584 
Q 2034 3584 2315 3537 
Q 2597 3491 2834 3397 
z
" transform="scale(0.015625)"/>
      <path id="DejaVuSans-3a" d="M 750 794 
L 1409 794 
L 1409 0 
L 750 0 
L 750 794 
z
M 750 3309 
L 1409 3309 
L 1409 2516 
L 750 2516 
L 750 3309 
z
" transform="scale(0.015625)"/>
     </defs>
     <use xlink:href="#DejaVuSans-46"/>
     <use xlink:href="#DejaVuSans-69" x="50.269531"/>
     <use xlink:href="#DejaVuSans-74" x="78.052734"/>
     <use xlink:href="#DejaVuSans-20" x="117.261719"/>
     <use xlink:href="#DejaVuSans-70" x="149.048828"/>
     <use xlink:href="#DejaVuSans-61" x="212.525391"/>
     <use xlink:href="#DejaVuSans-72" x="273.804688"/>
     <use xlink:href="#DejaVuSans-61" x="314.917969"/>
     <use xlink:href="#DejaVuSans-6d" x="376.197266"/>
     <use xlink:href="#DejaVuSans-65" x="473.609375"/>
     <use xlink:href="#DejaVuSans-74" x="535.132812"/>
     <use xlink:href="#DejaVuSans-65" x="574.341797"/>
     <use xlink:href="#DejaVuSans-72" x="635.865234"/>
     <use xlink:href="#DejaVuSans-73" x="676.978516"/>
     <use xlink:href="#DejaVuSans-3a" x="729.078125"/>
    </g>
    <!-- I$_\mathrm{sat}$ = $2.27 \times 10^{5}$ W/cm² -->
    <g style="fill: #ffa07a" transform="translate(318.1608 276.5245) scale(0.1 -0.1)">
     <defs>
      <path id="DejaVuSans-3d" d="M 678 2906 
L 4684 2906 
L 4684 2381 
L 678 2381 
L 678 2906 
z
M 678 1631 
L 4684 1631 
L 4684 1100 
L 678 1100 
L 678 1631 
z
" transform="scale(0.015625)"/>
      <path id="DejaVuSans-d7" d="M 4488 3438 
L 3059 2003 
L 4488 575 
L 4116 197 
L 2681 1631 
L 1247 197 
L 878 575 
L 2303 2003 
L 878 3438 
L 1247 3816 
L 2681 2381 
L 4116 3816 
L 4488 3438 
z
" transform="scale(0.015625)"/>
     </defs>
     <use xlink:href="#DejaVuSans-49" transform="translate(0 0.684375)"/>
     <use xlink:href="#DejaVuSans-73" transform="translate(30.449219 -15.721875) scale(0.7)"/>
     <use xlink:href="#DejaVuSans-61" transform="translate(66.918945 -15.721875) scale(0.7)"/>
     <use xlink:href="#DejaVuSans-74" transform="translate(109.814453 -15.721875) scale(0.7)"/>
     <use xlink:href="#DejaVuSans-20" transform="translate(139.995117 0.684375)"/>
     <use xlink:href="#DejaVuSans-3d" transform="translate(171.782227 0.684375)"/>
     <use xlink:href="#DejaVuSans-20" transform="translate(255.571289 0.684375)"/>
     <use xlink:href="#DejaVuSans-32" transform="translate(287.358398 0.684375)"/>
     <use xlink:href="#DejaVuSans-2e" transform="translate(350.981445 0.684375)"/>
     <use xlink:href="#DejaVuSans-32" transform="translate(377.268555 0.684375)"/>
     <use xlink:href="#DejaVuSans-37" transform="translate(440.891602 0.684375)"/>
     <use xlink:href="#DejaVuSans-d7" transform="translate(523.99707 0.684375)"/>
     <use xlink:href="#DejaVuSans-31" transform="translate(627.268555 0.684375)"/>
     <use xlink:href="#DejaVuSans-30" transform="translate(690.891602 0.684375)"/>
     <use xlink:href="#DejaVuSans-35" transform="translate(755.47168 38.965625) scale(0.7)"/>
     <use xlink:href="#DejaVuSans-20" transform="translate(802.742188 0.684375)"/>
     <use xlink:href="#DejaVuSans-57" transform="translate(834.529297 0.684375)"/>
     <use xlink:href="#DejaVuSans-2f" transform="translate(933.40625 0.684375)"/>
     <use xlink:href="#DejaVuSans-63" transform="translate(967.097656 0.684375)"/>
     <use xlink:href="#DejaVuSans-6d" transform="translate(1022.078125 0.684375)"/>
     <use xlink:href="#DejaVuSans-b2" transform="translate(1119.490234 0.684375)"/>
    </g>
    <!-- N$_\mathrm{max}$ = 0.32 -->
    <g style="fill: #ffa07a" transform="translate(318.1608 287.722312) scale(0.1 -0.1)">
     <defs>
      <path id="DejaVuSans-4e" d="M 628 4666 
L 1478 4666 
L 3547 763 
L 3547 4666 
L 4159 4666 
L 4159 0 
L 3309 0 
L 1241 3903 
L 1241 0 
L 628 0 
L 628 4666 
z
" transform="scale(0.015625)"/>
      <path id="DejaVuSans-78" d="M 3513 3500 
L 2247 1797 
L 3578 0 
L 2900 0 
L 1881 1375 
L 863 0 
L 184 0 
L 1544 1831 
L 300 3500 
L 978 3500 
L 1906 2253 
L 2834 3500 
L 3513 3500 
z
" transform="scale(0.015625)"/>
      <path id="DejaVuSans-33" d="M 2597 2516 
Q 3050 2419 3304 2112 
Q 3559 1806 3559 1356 
Q 3559 666 3084 287 
Q 2609 -91 1734 -91 
Q 1441 -91 1130 -33 
Q 819 25 488 141 
L 488 750 
Q 750 597 1062 519 
Q 1375 441 1716 441 
Q 2309 441 2620 675 
Q 2931 909 2931 1356 
Q 2931 1769 2642 2001 
Q 2353 2234 1838 2234 
L 1294 2234 
L 1294 2753 
L 1863 2753 
Q 2328 2753 2575 2939 
Q 2822 3125 2822 3475 
Q 2822 3834 2567 4026 
Q 2313 4219 1838 4219 
Q 1578 4219 1281 4162 
Q 984 4106 628 3988 
L 628 4550 
Q 988 4650 1302 4700 
Q 1616 4750 1894 4750 
Q 2613 4750 3031 4423 
Q 3450 4097 3450 3541 
Q 3450 3153 3228 2886 
Q 3006 2619 2597 2516 
z
" transform="scale(0.015625)"/>
     </defs>
     <use xlink:href="#DejaVuSans-4e" transform="translate(0 0.78125)"/>
     <use xlink:href="#DejaVuSans-6d" transform="translate(75.761719 -15.625) scale(0.7)"/>
     <use xlink:href="#DejaVuSans-61" transform="translate(143.950195 -15.625) scale(0.7)"/>
     <use xlink:href="#DejaVuSans-78" transform="translate(186.845703 -15.625) scale(0.7)"/>
     <use xlink:href="#DejaVuSans-20" transform="translate(231.005859 0.78125)"/>
     <use xlink:href="#DejaVuSans-3d" transform="translate(262.792969 0.78125)"/>
     <use xlink:href="#DejaVuSans-20" transform="translate(346.582031 0.78125)"/>
     <use xlink:href="#DejaVuSans-30" transform="translate(378.369141 0.78125)"/>
     <use xlink:href="#DejaVuSans-2e" transform="translate(441.992188 0.78125)"/>
     <use xlink:href="#DejaVuSans-33" transform="translate(473.779297 0.78125)"/>
     <use xlink:href="#DejaVuSans-32" transform="translate(537.402344 0.78125)"/>
    </g>
   </g>
   <g id="text_21">
    <!-- First transition (420.762 nm) -->
    <g style="fill: #ffffff" transform="translate(165.938125 20.88) scale(0.12 -0.12)">
     <defs>
      <path id="DejaVuSans-6f" d="M 1959 3097 
Q 1497 3097 1228 2736 
Q 959 2375 959 1747 
Q 959 1119 1226 758 
Q 1494 397 1959 397 
Q 2419 397 2687 759 
Q 2956 1122 2956 1747 
Q 2956 2369 2687 2733 
Q 2419 3097 1959 3097 
z
M 1959 3584 
Q 2709 3584 3137 3096 
Q 3566 2609 3566 1747 
Q 3566 888 3137 398 
Q 2709 -91 1959 -91 
Q 1206 -91 779 398 
Q 353 888 353 1747 
Q 353 2609 779 3096 
Q 1206 3584 1959 3584 
z
" transform="scale(0.015625)"/>
     </defs>
     <use xlink:href="#DejaVuSans-46"/>
     <use xlink:href="#DejaVuSans-69" x="50.269531"/>
     <use xlink:href="#DejaVuSans-72" x="78.052734"/>
     <use xlink:href="#DejaVuSans-73" x="119.166016"/>
     <use xlink:href="#DejaVuSans-74" x="171.265625"/>
     <use xlink:href="#DejaVuSans-20" x="210.474609"/>
     <use xlink:href="#DejaVuSans-74" x="242.261719"/>
     <use xlink:href="#DejaVuSans-72" x="281.470703"/>
     <use xlink:href="#DejaVuSans-61" x="322.583984"/>
     <use xlink:href="#DejaVuSans-6e" x="383.863281"/>
     <use xlink:href="#DejaVuSans-73" x="447.242188"/>
     <use xlink:href="#DejaVuSans-69" x="499.341797"/>
     <use xlink:href="#DejaVuSans-74" x="527.125"/>
     <use xlink:href="#DejaVuSans-69" x="566.333984"/>
     <use xlink:href="#DejaVuSans-6f" x="594.117188"/>
     <use xlink:href="#DejaVuSans-6e" x="655.298828"/>
     <use xlink:href="#DejaVuSans-20" x="718.677734"/>
     <use xlink:href="#DejaVuSans-28" x="750.464844"/>
     <use xlink:href="#DejaVuSans-34" x="789.478516"/>
     <use xlink:href="#DejaVuSans-32" x="853.101562"/>
     <use xlink:href="#DejaVuSans-30" x="916.724609"/>
     <use xlink:href="#DejaVuSans-2e" x="980.347656"/>
     <use xlink:href="#DejaVuSans-37" x="1012.134766"/>
     <use xlink:href="#DejaVuSans-36" x="1075.757812"/>
     <use xlink:href="#DejaVuSans-32" x="1139.380859"/>
     <use xlink:href="#DejaVuSans-20" x="1203.003906"/>
     <use xlink:href="#DejaVuSans-6e" x="1234.791016"/>
     <use xlink:href="#DejaVuSans-6d" x="1298.169922"/>
     <use xlink:href="#DejaVuSans-29" x="1395.582031"/>
    </g>
   </g>
   <g id="legend_1">
    <g id="patch_8">
     <path d="M 61.02 64.23625 
L 116.896563 64.23625 
Q 118.896563 64.23625 118.896563 62.23625 
L 118.896563 33.88 
Q 118.896563 31.88 116.896563 31.88 
L 61.02 31.88 
Q 59.02 31.88 59.02 33.88 
L 59.02 62.23625 
Q 59.02 64.23625 61.02 64.23625 
L 61.02 64.23625 
z
" style="fill: none; opacity: 0.8; stroke: #cccccc; stroke-linejoin: miter"/>
    </g>
    <g id="line2d_19">
     <path d="M 63.02 39.978437 
L 73.02 39.978437 
L 83.02 39.978437 
" style="fill: none; stroke: #ffa07a; stroke-width: 1.5; stroke-linecap: square"/>
    </g>
    <g id="text_22">
     <!-- Fit -->
     <g style="fill: #ffffff" transform="translate(91.02 43.478437) scale(0.1 -0.1)">
      <use xlink:href="#DejaVuSans-46"/>
      <use xlink:href="#DejaVuSans-69" x="50.269531"/>
      <use xlink:href="#DejaVuSans-74" x="78.052734"/>
     </g>
    </g>
    <g id="line2d_20"/>
    <g id="line2d_21">
     <g>
      <use xlink:href="#m797d351249" x="73.02" y="54.656563" style="fill: #add8e6; stroke: #add8e6"/>
     </g>
    </g>
    <g id="text_23">
     <!-- Data -->
     <g style="fill: #ffffff" transform="translate(91.02 58.156563) scale(0.1 -0.1)">
      <defs>
       <path id="DejaVuSans-44" d="M 1259 4147 
L 1259 519 
L 2022 519 
Q 2988 519 3436 956 
Q 3884 1394 3884 2338 
Q 3884 3275 3436 3711 
Q 2988 4147 2022 4147 
L 1259 4147 
z
M 628 4666 
L 1925 4666 
Q 3281 4666 3915 4102 
Q 4550 3538 4550 2338 
Q 4550 1131 3912 565 
Q 3275 0 1925 0 
L 628 0 
L 628 4666 
z
" transform="scale(0.015625)"/>
      </defs>
      <use xlink:href="#DejaVuSans-44"/>
      <use xlink:href="#DejaVuSans-61" x="77.001953"/>
      <use xlink:href="#DejaVuSans-74" x="138.28125"/>
      <use xlink:href="#DejaVuSans-61" x="177.490234"/>
     </g>
    </g>
   </g>
  </g>
 </g>
 <defs>
  <clipPath id="p1514ae9511">
   <rect x="54.02" y="26.88" width="395.98" height="276.76"/>
  </clipPath>
 </defs>
</svg>
